<svg width="98" height="104" viewBox="0 0 98 104" fill="none" xmlns="http://www.w3.org/2000/svg">
<rect width="98" height="104" rx="10" fill="black"/>
<path d="M27.52 71.768C24.4053 71.768 21.6747 71.1707 19.328 69.976C16.9813 68.7387 15.168 66.9467 13.888 64.6C12.608 62.2533 11.968 59.3733 11.968 55.96V44.12C11.968 39 13.4613 35.096 16.448 32.408C19.4773 29.6773 23.616 28.312 28.864 28.312C32.6187 28.312 35.776 28.9093 38.336 30.104C40.9387 31.2987 42.8373 32.9627 44.032 35.096C45.2693 37.1867 45.696 39.5973 45.312 42.328C45.2693 42.84 45.0133 43.096 44.544 43.096L38.336 43.032C37.824 43.032 37.5893 42.776 37.632 42.264C37.7173 40.728 37.44 39.4267 36.8 38.36C36.2027 37.2507 35.264 36.4187 33.984 35.864C32.704 35.3093 31.0613 35.032 29.056 35.032C25.9413 35.032 23.5947 35.8 22.016 37.336C20.4373 38.8293 19.648 41.1547 19.648 44.312V55.768C19.648 58.968 20.416 61.3147 21.952 62.808C23.5307 64.3013 25.856 65.048 28.928 65.048C31.9147 65.048 34.1973 64.3653 35.776 63C37.3547 61.592 38.144 59.5653 38.144 56.92V54.872H29.504C28.992 54.872 28.736 54.616 28.736 54.104V49.816C28.736 49.3467 28.992 49.112 29.504 49.112H44.736C44.9493 49.112 45.12 49.176 45.248 49.304C45.376 49.432 45.44 49.6027 45.44 49.816V61.592C45.44 63.0427 45.4613 64.5147 45.504 66.008C45.5893 67.5013 45.7387 68.888 45.952 70.168C46.0373 70.424 45.9947 70.6373 45.824 70.808C45.696 70.936 45.5253 71 45.312 71H40.32C40.1067 71 39.936 70.9573 39.808 70.872C39.68 70.744 39.5733 70.5733 39.488 70.36C39.4027 69.848 39.3173 69.2293 39.232 68.504C39.1893 67.7787 39.1467 67.0747 39.104 66.392H38.976C38.2507 67.5013 37.3333 68.4613 36.224 69.272C35.1573 70.0827 33.8987 70.7013 32.448 71.128C30.9973 71.5547 29.3547 71.768 27.52 71.768ZM64.4165 71C63.9472 71 63.6485 70.808 63.5205 70.424L50.1445 29.912C49.9738 29.3573 50.1658 29.08 50.7205 29.08H57.4405C57.9098 29.08 58.2085 29.272 58.3365 29.656L66.0165 54.936C66.4858 56.472 66.9338 58.008 67.3605 59.544C67.7872 61.08 68.1925 62.616 68.5765 64.152H68.7045C69.0885 62.616 69.4938 61.1013 69.9205 59.608C70.3898 58.072 70.8378 56.536 71.2645 55L79.1365 29.72C79.2645 29.2933 79.5632 29.08 80.0325 29.08H86.7525C87.3072 29.08 87.4992 29.3573 87.3285 29.912L73.6965 70.424C73.5685 70.808 73.2912 71 72.8645 71H64.4165Z" fill="white"/>
</svg>
