<svg xmlns="http://www.w3.org/2000/svg" width="34" height="34" fill="none"><path fill="#FFFFFF" fill-rule="evenodd" d="M17 0c9.39 0 17 7.803 17 17.43 0 7.7-4.865 14.23-11.616 16.538-.862.171-1.168-.373-1.168-.837 0-.575.02-2.451.02-4.784 0-1.625-.544-2.686-1.154-3.226 3.786-.432 7.764-1.906 7.764-8.6 0-1.905-.66-3.459-1.751-4.68.177-.44.76-2.212-.167-4.613 0 0-1.424-.467-4.67 1.787A15.973 15.973 0 0 0 17 8.43a15.938 15.938 0 0 0-4.255.586C9.496 6.761 8.068 7.228 8.068 7.228c-.923 2.4-.34 4.174-.165 4.614-1.086 1.22-1.75 2.774-1.75 4.678 0 6.678 3.969 8.174 7.745 8.615-.487.435-.927 1.203-1.08 2.33-.969.445-3.43 1.216-4.947-1.448 0 0-.9-1.675-2.606-1.797 0 0-1.658-.022-.116 1.06 0 0 1.114.535 1.887 2.55 0 0 .998 3.11 5.728 2.056.008 1.457.023 2.83.023 3.245 0 .46-.312 1-1.16.838C4.87 31.666 0 25.131 0 17.43 0 7.803 7.613 0 17 0Z" clip-rule="evenodd"/></svg>
