<svg xmlns="http://www.w3.org/2000/svg" width="34" height="34" fill="none"><path fill="#FFFFFF" d="M31.344 0H2.656A2.656 2.656 0 0 0 0 2.656v28.688A2.656 2.656 0 0 0 2.656 34h28.688A2.656 2.656 0 0 0 34 31.344V2.656A2.656 2.656 0 0 0 31.344 0ZM12.245 24.112H8.932V13.507h3.313v10.605ZM10.5 12.18h-.027c-1.202 0-1.979-.81-1.979-1.84 0-1.049.804-1.839 2.026-1.839 1.222 0 1.972.79 1.999 1.84.006 1.022-.77 1.839-2.02 1.839ZM25.5 24.112h-3.759v-5.485c0-1.434-.584-2.417-1.879-2.417-.99 0-1.54.664-1.793 1.301-.093.226-.08.545-.08.87v5.731h-3.725s.046-9.722 0-10.605h3.726v1.667c.219-.73 1.407-1.767 3.307-1.767 2.357 0 4.203 1.528 4.203 4.808v5.897Z"/></svg>
